:FULLY-SPECIFIED
:FORCE-ALL-JOINTS-BE-3DOF
:DEGREES
883
root 3.80315 16.4757 30.5337 -7.92336 19.9442 -0.426317
lfemur -19.4763 16.0462 -17.4338
ltibia 42.1775 -0 0
lfoot -10.2901 -13.1421 -0.628029
ltoes 16.5344 -0 0
rfemur -42.7222 -7.0818 2.53911
rtibia 69.9921 -0 0
rfoot 6.76666 -11.7687 0.163149
rtoes 18.8631 -0 0
lowerback 8.25538 -1.84302 -3.90915
upperback 2.26763 -2.77745 -1.63791
thorax -2.14717 -1.37953 0.759838
lowerneck -6.74928 -5.03516 0.206246
upperneck 6.28135 -7.09337 4.07102
head 3.41121 -3.3363 0.940447
lclavicle 1.65565e-14 -4.2473e-15 4.61038e-31
lhumerus -42.7318 -30.7691 94.6001
lradius 58.2496 -0 0
lwrist 17.7075 0 0
lhand 19.0093 10.8042 0.626751
lfingers 7.12502 -0 0
lthumb 43.4647 33.7132 0.201991
rclavicle 1.65565e-14 -4.2473e-15 4.61038e-31
rhumerus -46.3371 6.28345 -74.3169
rradius 84.0296 -0 0
rwrist -4.1166 0 0
rhand 0.585021 -16.8836 1.44372
rfingers 7.12502 -0 0
rthumb 26.0862 -44.4465 1.60225
884
root 3.78978 16.4677 30.6266 -7.41337 20.0828 -0.370574
lfemur -19.9513 16.7646 -17.3475
ltibia 42.7357 -0 0
lfoot -10.6928 -12.1842 -0.621288
ltoes 16.0541 -0 0
rfemur -41.5463 -7.48962 2.31094
rtibia 70.6625 -0 0
rfoot 6.64247 -12.5741 0.161401
rtoes 20.3649 -0 0
lowerback 7.92935 -1.87258 -3.87465
upperback 2.13199 -2.80389 -1.67941
thorax -2.11026 -1.39227 0.691029
lowerneck -6.77066 -5.1535 0.0532989
upperneck 6.14914 -7.23696 4.13838
head 3.38233 -3.41099 0.981744
lclavicle 1.62867e-14 -3.20274e-15 4.56114e-31
lhumerus -43.2861 -31.3694 95.6684
lradius 58.4528 -0 0
lwrist 17.3481 0 0
lhand 19.8496 11.262 0.620029
lfingers 7.12502 -0 0
lthumb 44.2462 33.8716 0.199827
rclavicle 1.62867e-14 -3.20274e-15 4.56114e-31
rhumerus -46.1745 6.7351 -75.7739
rradius 86.2867 -0 0
rwrist -4.47989 0 0
rhand 1.57029 -15.9803 1.42817
rfingers 7.12502 -0 0
rthumb 27.0311 -43.4002 1.58498
885
root 3.77651 16.4598 30.7188 -6.90644 20.22 -0.313882
lfemur -20.4236 17.4785 -17.2676
ltibia 43.2899 -0 0
lfoot -11.0925 -11.2332 -0.607935
ltoes 15.5771 -0 0
rfemur -40.3761 -7.88984 2.07586
rtibia 71.3282 -0 0
rfoot 6.51921 -13.3737 0.157939
rtoes 21.856 -0 0
lowerback 7.60564 -1.90174 -3.84024
upperback 1.99734 -2.83023 -1.72054
thorax -2.07361 -1.40488 0.622704
lowerneck -6.79158 -5.27105 -0.0985385
upperneck 6.01766 -7.37936 4.20561
head 3.35359 -3.48513 1.02279
lclavicle 1.60189e-14 -2.16566e-15 4.4636e-31
lhumerus -43.853 -31.9565 96.7425
lradius 58.6546 -0 0
lwrist 16.9913 0 0
lhand 20.6839 11.7163 0.606714
lfingers 7.12502 -0 0
lthumb 45.0221 34.0289 0.195542
rclavicle 1.60189e-14 -2.16566e-15 4.4636e-31
rhumerus -46.0243 7.18743 -77.2205
rradius 88.5277 -0 0
rwrist -4.84058 0 0
rhand 2.54813 -15.0839 1.39737
rfingers 7.12502 -0 0
rthumb 27.9687 -42.3618 1.55077
886
root 3.7634 16.4521 30.81 -6.40502 20.355 -0.256554
lfemur -20.891 18.1844 -17.1945
ltibia 43.8375 -0 0
lfoot -11.4871 -10.2938 -0.588232
ltoes 15.1059 -0 0
rfemur -39.2172 -8.28049 1.83532
rtibia 71.9859 -0 0
rfoot 6.39748 -14.1637 0.15283
rtoes 23.3291 -0 0
lowerback 7.28583 -1.93036 -3.80608
upperback 1.86432 -2.85635 -1.76112
thorax -2.03738 -1.41729 0.555192
lowerneck -6.81195 -5.38724 -0.248538
upperneck 5.88755 -7.5199 4.27238
head 3.32515 -3.55836 1.06337
lclavicle 1.57543e-14 -1.14104e-15 4.31963e-31
lhumerus -44.4293 -32.5274 97.8173
lradius 58.8539 -0 0
lwrist 16.6388 0 0
lhand 21.508 12.165 0.587064
lfingers 7.12502 -0 0
lthumb 45.7887 34.1842 0.189217
rclavicle 1.57543e-14 -1.14104e-15 4.31963e-31
rhumerus -45.8872 7.63788 -78.6501
rradius 90.7417 -0 0
rwrist -5.19693 0 0
rhand 3.51361 -14.199 1.35194
rfingers 7.12502 -0 0
rthumb 28.8943 -41.3366 1.50031
887
root 3.7505 16.4444 30.8996 -5.91157 20.4873 -0.198925
lfemur -21.3514 18.8789 -17.1283
ltibia 44.3758 -0 0
lfoot -11.8746 -9.3705 -0.562562
ltoes 14.6428 -0 0
rfemur -38.0753 -8.65971 1.5909
rtibia 72.6323 -0 0
rfoot 6.27791 -14.9402 0.146172
rtoes 24.7771 -0 0
lowerback 6.97142 -1.9583 -3.77234
upperback 1.73359 -2.88211 -1.80096
thorax -2.00175 -1.42945 0.488821
lowerneck -6.83167 -5.5015 -0.39597
upperneck 5.75946 -7.6579 4.33834
head 3.29714 -3.63032 1.10331
lclavicle 1.54942e-14 -1.33868e-16 4.13199e-31
lhumerus -45.0118 -33.0796 98.887
lradius 59.0498 -0 0
lwrist 16.2923 0 0
lhand 22.3179 12.6057 0.561463
lfingers 7.12502 -0 0
lthumb 46.5422 34.3367 0.180975
rclavicle 1.54942e-14 -1.33868e-16 4.13199e-31
rhumerus -45.7633 8.08384 -80.0559
rradius 92.918 -0 0
rwrist -5.54721 0 0
rhand 4.46185 -13.33 1.29276
rfingers 7.12502 -0 0
rthumb 29.8031 -40.3298 1.43458
888
root 3.7379 16.4369 30.9871 -5.42856 20.6161 -0.141357
lfemur -21.8027 19.5583 -17.069
ltibia 44.902 -0 0
lfoot -12.253 -8.46797 -0.53143
ltoes 14.1898 -0 0
rfemur -36.9561 -9.02575 1.34432
rtibia 73.2644 -0 0
rfoot 6.16109 -15.6994 0.138096
rtoes 26.193 -0 0
lowerback 6.664 -1.98544 -3.73921
upperback 1.60578 -2.90739 -1.83985
thorax -1.9669 -1.4413 0.423921
lowerneck -6.85067 -5.61327 -0.540109
upperneck 5.63402 -7.79268 4.40316
head 3.2697 -3.70065 1.14239
lclavicle 1.52399e-14 8.50879e-16 3.90432e-31
lhumerus -45.5967 -33.6105 99.9459
lradius 59.2413 -0 0
lwrist 15.9535 0 0
lhand 23.1096 13.0362 0.530412
lfingers 7.12502 -0 0
lthumb 47.2789 34.4858 0.170978
rclavicle 1.52399e-14 8.50879e-16 3.90432e-31
rhumerus -45.6528 8.52265 -81.4309
rradius 95.0458 -0 0
rwrist -5.88968 0 0
rhand 5.38797 -12.4814 1.22102
rfingers 7.12502 -0 0
rthumb 30.6904 -39.3465 1.3549
889
root 3.72564 16.4297 31.0723 -4.9584 20.741 -0.0842244
lfemur -22.2425 20.2193 -17.0166
ltibia 45.4136 -0 0
lfoot -12.6204 -7.59078 -0.495455
ltoes 13.7496 -0 0
rfemur -35.8654 -9.37697 1.09747
rtibia 73.8789 -0 0
rfoot 6.04764 -16.4374 0.128763
rtoes 27.5693 -0 0
lowerback 6.36511 -2.01166 -3.70686
upperback 1.48154 -2.93205 -1.8776
thorax -1.933 -1.45278 0.36082
lowerneck -6.86888 -5.72197 -0.680225
upperneck 5.51189 -7.92358 4.46648
head 3.24298 -3.76902 1.18043
lclavicle 1.49927e-14 1.80822e-15 3.64109e-31
lhumerus -46.1801 -34.1178 100.988
lradius 59.4276 -0 0
lwrist 15.6241 0 0
lhand 23.8789 13.4542 0.494528
lfingers 7.12502 -0 0
lthumb 47.9951 34.6305 0.159423
rclavicle 1.49927e-14 1.80822e-15 3.64109e-31
rhumerus -45.5556 8.95164 -82.7683
rradius 97.1145 -0 0
rwrist -6.22262 0 0
rhand 6.28718 -11.6577 1.13815
rfingers 7.12502 -0 0
rthumb 31.5515 -38.392 1.26287
890
root 3.7138 16.4226 31.1546 -4.50373 20.8612 -0.0279497
lfemur -22.6687 20.8582 -16.9709
ltibia 45.908 -0 0
lfoot -12.9748 -6.74352 -0.45536
ltoes 13.3242 -0 0
rfemur -34.8092 -9.71183 0.852322
rtibia 74.4726 -0 0
rfoot 5.93815 -17.1505 0.118357
rtoes 28.8992 -0 0
lowerback 6.07633 -2.03682 -3.67547
upperback 1.36152 -2.95595 -1.91402
thorax -1.90025 -1.46384 0.299848
lowerneck -6.88622 -5.82703 -0.815592
upperneck 5.39372 -8.04991 4.52794
head 3.21712 -3.83505 1.2172
lclavicle 1.47538e-14 2.73316e-15 3.34753e-31
lhumerus -46.7576 -34.5995 102.006
lradius 59.6075 -0 0
lwrist 15.3059 0 0
lhand 24.622 13.8576 0.454531
lfingers 7.12502 -0 0
lthumb 48.687 34.7702 0.146541
rclavicle 1.47538e-14 2.73316e-15 3.34753e-31
rhumerus -45.4711 9.36814 -84.0614
rradius 99.1131 -0 0
rwrist -6.54428 0 0
rhand 7.15471 -10.8632 1.04582
rfingers 7.12502 -0 0
rthumb 32.3819 -37.4712 1.16035
891
root 3.70244 16.4159 31.2335 -4.06697 20.9761 0.0270517
lfemur -23.0788 21.4716 -16.9316
ltibia 46.3823 -0 0
lfoot -13.3143 -5.93075 -0.411963
ltoes 12.9161 -0 0
rfemur -33.7932 -10.0289 0.610996
rtibia 75.0423 -0 0
rfoot 5.83322 -17.8347 0.107092
rtoes 30.1752 -0 0
lowerback 5.7992 -2.06083 -3.64523
upperback 1.24637 -2.97896 -1.94893
thorax -1.8688 -1.47441 0.241334
lowerneck -6.90262 -5.92789 -0.945482
upperneck 5.28016 -8.17103 4.58719
head 3.19226 -3.8984 1.25253
lclavicle 1.45246e-14 3.62072e-15 3.02957e-31
lhumerus -47.3247 -35.0536 102.995
lradius 59.7801 -0 0
lwrist 15.0005 0 0
lhand 25.3347 14.2442 0.411236
lfingers 7.12502 -0 0
lthumb 49.3509 34.9041 0.132595
rclavicle 1.45246e-14 3.62072e-15 3.02957e-31
rhumerus -45.399 9.76947 -85.3031
rradius 101.031 -0 0
rwrist -6.85294 0 0
rhand 7.98588 -10.1022 0.945931
rfingers 7.12502 -0 0
rthumb 33.1771 -36.5892 1.04946
